<svg width="1367" height="1598" viewBox="0 0 1367 1598" fill="none" xmlns="http://www.w3.org/2000/svg">
<path d="M947.748 463.624C948.333 464.571 949.551 464.889 950.454 464.331C951.357 463.772 951.947 463.851 951.765 464.507C951.581 465.162 952.256 468.104 953.262 471.044C954.6 474.956 954.694 477.825 953.611 481.745C952.799 484.69 952.483 487.665 952.909 488.356C953.335 489.047 953.149 489.49 952.493 489.342C951.838 489.194 949.352 489.883 946.967 490.875C941.594 493.107 932.473 492.045 928.848 488.765C922.646 483.153 921.86 470.767 927.387 465.764C932.712 460.945 945.277 459.625 947.748 463.624Z" fill="white"/>
<path d="M891.041 464.478C895.412 467.238 897.531 473.074 896.64 479.899C895.735 486.82 892.338 490.665 886.09 491.838C874.779 493.96 868.06 488.95 866.794 477.451C865.997 470.213 866.264 468.935 869.129 466.243C875.006 460.721 883.946 460.002 891.041 464.478Z" fill="white"/>
<path fill-rule="evenodd" clip-rule="evenodd" d="M879.898 615.493C886.613 618.054 891.095 618.532 908.797 618.577C929.242 618.629 930.04 618.513 941.739 613.811C942.218 613.619 942.677 613.433 943.117 613.253C943.477 613.107 943.824 612.965 944.16 612.828C948.176 611.186 950.612 610.19 953.084 610.093C956.892 609.942 960.785 611.925 970.677 616.963C971.874 617.572 973.159 618.227 974.543 618.928C1001.63 632.651 1025.85 655.53 1039.38 680.159C1048.61 696.967 1048.96 700.059 1048.96 764.676V822.678L1041.41 832.647C1030.88 846.561 1006.91 869.965 993.248 879.668C986.933 884.153 974.94 891.306 966.596 895.563L951.423 903.303L904.796 903.721L858.171 904.14L845.828 898.356C814.221 883.544 794.545 864.657 772.514 827.976L767.192 819.117V762.896C767.192 702.029 796.575 645.881 811.986 633.791C814.883 631.517 816.886 629.92 818.298 628.794C821.031 626.614 821.565 626.189 822.172 625.977C822.263 625.946 822.356 625.919 822.458 625.891C822.521 625.875 822.588 625.858 822.66 625.839C823.426 625.644 824.801 625.293 828.964 623.31L830.092 622.773C855.687 610.583 860.244 608.412 864.089 609.306C864.922 609.5 865.722 609.837 866.695 610.248L866.894 610.332C869.675 611.504 875.527 613.826 879.898 615.493ZM930.075 745.101C929.099 743.279 928.569 734.424 928.708 722.288L928.935 702.455L909.27 702.053L889.606 701.651V723.934C889.606 742.919 889.268 746.347 887.32 747.094C886.063 747.576 876.364 747.971 865.767 747.971C854.459 747.971 846.299 748.556 846.016 749.388C845.752 750.169 845.736 758.604 845.98 768.135L846.426 785.466L868.377 785.863L890.328 786.262V808.659V831.056L906.945 831.475C931.774 832.102 929.576 834.393 929.449 808.009L929.342 785.61L951.016 785.215L972.691 784.817L973.413 767.129C974.02 752.287 973.787 749.303 971.968 748.589C970.776 748.121 961.221 747.815 950.735 747.909C932.869 748.068 931.569 747.891 930.075 745.101Z" fill="white"/>
<path d="M928.708 722.288C928.569 734.424 929.099 743.279 930.075 745.101C931.569 747.891 932.869 748.068 950.735 747.909C961.221 747.815 970.776 748.121 971.968 748.589C973.787 749.303 974.02 752.287 973.413 767.129L972.691 784.817L951.016 785.215L929.342 785.61L929.449 808.009C929.576 834.393 931.774 832.102 906.945 831.475L890.328 831.056V808.659V786.262L868.377 785.863L846.426 785.466L845.98 768.135C845.736 758.604 845.752 750.169 846.016 749.388C846.299 748.556 854.459 747.971 865.767 747.971C876.364 747.971 886.063 747.576 887.32 747.094C889.268 746.347 889.606 742.919 889.606 723.934V701.651L909.27 702.053L928.935 702.455L928.708 722.288Z" fill="#09244B"/>
<path d="M1044.96 569.704C1065.42 574.04 1083.98 586.107 1090.83 599.532C1096.92 611.47 1092.24 634.422 1083.08 637.584C1080.4 638.508 1078.23 638.478 1076.67 637.496C1071.97 634.528 1071.25 631.652 1073.07 623.001C1074.02 618.45 1074.58 614.508 1074.32 614.24C1074.05 613.973 1071.62 620.374 1068.92 628.466C1063.15 645.746 1057.77 652.819 1050.38 652.819C1044.16 652.819 1040.9 650.861 1038.84 645.881C1037.38 642.343 1037.79 639.065 1041.61 623.937C1044.75 611.494 1045.64 605.696 1044.58 604.633C1042.42 602.479 1040.94 604.539 1037.99 613.806C1034.34 625.235 1031.5 629.475 1026.34 631.177C1020.66 633.054 1015.63 631.305 1011.46 626.001C1007.52 621 1007.58 618.702 1012.16 598.219C1017.05 576.36 1019.27 571.662 1025.73 569.454C1032.28 567.216 1033.28 567.229 1044.96 569.704Z" fill="white"/>
<path d="M1004.95 568.105C1004.56 569.002 1002.17 574.611 999.632 580.572C997.097 586.532 994.84 591.617 994.616 591.87C994.392 592.124 989.203 590.247 983.084 587.701L971.959 583.068L979.067 575.961C982.976 572.052 988.576 568.028 991.512 567.018C997.577 564.933 1006.04 565.618 1004.95 568.105Z" fill="white"/>
<path d="M1095.52 663.008C1108.11 695.351 1109.88 736.491 1099.89 764.651C1096.34 774.665 1082.49 798.759 1080.29 798.759C1079.68 798.759 1079.18 776.72 1079.18 749.783C1079.18 695.408 1078.42 689.875 1069.1 675.938C1066.7 672.362 1064.76 668.786 1064.78 667.991C1064.82 666.481 1087.46 652.93 1090.07 652.86C1090.89 652.838 1093.35 657.404 1095.52 663.008Z" fill="white"/>
<path fill-rule="evenodd" clip-rule="evenodd" d="M517.901 911.25C518.319 911.25 518.66 798.111 518.66 659.829C517.757 534.162 517.665 471.311 517.619 439.885C517.576 410.916 517.573 408.652 517.01 408.502C516.962 408.49 516.91 408.492 516.854 408.495C512.994 408.683 491.612 421.533 490.245 424.553C487.913 425.747 487.611 426.001 487.31 426.255C487.008 426.509 486.706 426.763 484.374 427.957V434.667C484.103 436.528 483.949 437.59 483.803 438.653C483.61 440.064 483.434 441.477 483.023 444.761L483.021 444.782C482.814 446.436 482.333 447.955 481.903 449.314C481.472 450.679 481.091 451.882 481.091 452.896C480.723 455.519 480.697 458.469 480.668 461.683C480.646 464.16 480.622 466.794 480.44 469.557C480.116 474.469 479.402 485.965 478.853 495.104C478.304 504.243 477.446 512.046 476.944 512.443C475.27 513.773 475.124 524.003 476.78 524.003C477.655 524.003 478.067 524.496 477.696 525.098C477.323 525.699 476.827 532.234 476.593 539.617L476.168 553.042L483.597 557.285C491.284 561.676 499.321 570.522 497.822 572.945C497.353 573.707 497.658 574.559 498.5 574.841C501.228 575.75 502.959 587.278 501.295 593.459C500.452 596.585 499.139 599.141 498.374 599.141C497.611 599.141 496.986 600.341 496.986 601.809C496.986 605.318 492.239 610.7 489.145 610.7C487.666 610.7 487.108 611.359 487.731 612.369C488.371 613.402 488.128 613.645 487.095 613.005C486.178 612.439 485.426 612.68 485.426 613.541C485.426 616.162 477.969 618.223 468.549 618.202C457.601 618.181 453.644 617.028 453.615 613.855C453.598 612.056 453.287 611.904 452.422 613.267C451.535 614.667 450.406 614.291 447.749 611.713C443.154 607.256 438.728 600.945 438.084 597.934C436.697 591.455 436.033 581.605 436.783 578.619C438.053 573.561 444.996 565.92 448.428 565.806C451.312 565.709 450.596 565.361 448.675 564.609C446.755 563.858 446.417 563.184 447.592 562.458C448.532 561.877 449.908 561.776 450.648 562.232C451.387 562.69 452.462 562.303 453.038 561.373C453.753 560.215 453.442 560.068 452.055 560.903C450.346 561.933 450.328 561.753 451.947 559.756C453.003 558.452 456.057 556.662 458.732 555.781C462.032 554.691 463.339 553.506 462.797 552.093C462.344 550.915 462.849 550.002 463.958 549.991C465.555 549.972 465.542 549.729 463.883 548.68C462.188 547.606 462.003 542.233 462.772 516.551C463.281 499.589 464.145 480.185 464.695 473.43C465.018 469.467 466.054 465.264 466.852 462.031C467.414 459.754 467.857 457.957 467.849 457.064C467.827 454.903 467.707 431.778 472.415 431.778C471.485 430.848 466.122 433.473 450.359 441.188C443.778 444.409 435.378 448.52 424.738 453.627C396.31 467.273 377.394 488.411 370.375 514.378C369.146 518.923 366.96 546.956 364.778 586.136C359.195 686.386 358.452 701.711 357.525 735.689C357.048 753.173 356.367 768.904 356.012 770.646C355.538 772.973 358.38 777.579 366.709 787.986C372.948 795.78 379.352 803.304 380.942 804.707C383.791 807.221 383.836 807.137 384.055 798.927C384.352 787.876 386.863 758.444 388.588 745.803C389.347 740.24 390.314 726.438 390.737 715.133C391.159 703.827 392.18 689.848 393.007 684.066C393.832 678.285 394.849 669.98 395.265 665.609C395.535 662.787 395.807 659.851 396.081 656.898C397.565 640.922 399.092 624.474 400.333 623.234C400.129 623.403 399.959 623.58 399.82 623.754C399.254 625.788 398.949 624.839 399.82 623.754C400.131 622.632 400.522 620.602 400.839 617.185C401.427 610.838 402.122 605.419 402.383 605.144C402.851 604.652 415.71 618.058 424.516 628.22L429.056 633.458L429.426 744.539L429.795 855.62L454.024 871.711C476.853 886.873 516.237 911.25 517.901 911.25ZM399.82 623.754C399.254 625.788 398.949 624.839 399.82 623.754Z" fill="white"/>
<path d="M613.13 194.641C608.363 189.258 593.86 180.572 585.972 178.378C571.934 174.472 553.741 174.635 538.804 178.802C524.351 182.835 507.429 193.525 505.417 199.863C504.794 201.826 503.856 203.53 502.83 205.394C500.808 209.066 498.446 213.356 497.486 221.466C497.534 221.133 497.25 222.362 497.191 222.766L497.486 221.466C497.183 223.555 495.084 238.72 495.138 249.432C495.173 256.323 496.225 267.161 497.477 273.519C498.73 279.877 499.755 285.2 499.755 285.349C499.755 285.496 497.646 285.821 495.069 286.071C487.948 286.759 485.841 292.25 488.065 304.321C490.127 315.505 500.295 329.654 500.295 329.654C500.295 329.654 503.941 337.693 506.573 342.695C508.023 345.448 509.42 348.168 510.792 350.837C520.553 369.83 529.004 386.273 545.458 394.372C557.623 400.361 574.474 401.744 586.644 397.753C611.272 389.674 628.43 367.518 633.388 337.392C634.009 333.616 635.317 331.44 637.581 330.408C642.507 328.163 648.018 318.63 650.689 307.733C652.713 299.473 652.787 297.182 651.187 292.279C649.564 287.313 648.663 286.462 644.611 286.071C644.494 286.06 644.38 286.049 644.268 286.039C644.206 286.033 644.145 286.027 644.085 286.022C642.567 285.881 641.537 285.785 640.919 285.231C639.613 284.059 640.143 280.841 641.792 270.826C641.879 270.298 641.969 269.751 642.062 269.184C644.821 252.403 644.842 231.969 642.116 222.784C639.317 213.363 631.654 204.592 622.945 200.847C619.106 199.195 614.689 196.402 613.13 194.641Z" fill="white"/>
<path d="M871.292 516.632C873.088 518.924 873.038 518.975 870.746 517.179C869.356 516.088 868.218 514.949 868.218 514.65C868.218 513.461 869.404 514.225 871.292 516.632Z" fill="#09244B"/>
<path fill-rule="evenodd" clip-rule="evenodd" d="M418.115 163.929C488.13 107.813 592.458 66.3894 682.408 58.9912C702.466 57.3411 742.429 57.3353 764.181 58.9797C822.957 63.4229 883.473 79.998 938.298 106.672C985.789 129.778 1024.88 157.075 1062.38 193.324C1111.88 241.182 1148.21 293.806 1174.59 355.881C1189.96 392.051 1200.73 433.208 1206.53 477.98C1209.51 500.937 1209.08 569.302 1205.82 590.686C1200.15 627.868 1195.96 646.125 1185.94 677.261C1167.81 733.618 1134.34 793.956 1097.16 837.315C1080.47 856.774 1047.76 888.562 1029.33 903.237C999.531 926.957 977.757 940.777 943.355 957.801C893.867 982.292 842.575 996.803 779.353 1004.21C758.128 1006.69 690.023 1006.69 670.259 1004.2C569.864 991.574 488.482 957.628 411.66 896.333C396.076 883.897 362.92 851.629 347.782 834.161C321.596 803.947 293.613 759.663 277.607 723.112C251.751 664.058 241.024 619.649 236.656 553.583C234.239 517.007 236.959 482.201 245.563 439.689C267.198 332.772 327.31 236.706 418.115 163.929ZM613.13 194.641C608.363 189.258 593.86 180.572 585.972 178.378C571.934 174.472 553.741 174.635 538.804 178.802C524.351 182.835 507.429 193.525 505.417 199.863C504.794 201.826 503.856 203.53 502.83 205.394C500.808 209.066 498.446 213.356 497.486 221.466C497.183 223.555 495.084 238.72 495.138 249.432C495.173 256.323 496.225 267.161 497.477 273.519C498.73 279.877 499.755 285.2 499.755 285.349C499.755 285.496 497.646 285.821 495.069 286.071C487.948 286.759 485.841 292.25 488.065 304.321C490.127 315.505 500.295 329.654 500.295 329.654C500.295 329.654 503.941 337.693 506.573 342.695C508.023 345.448 509.42 348.168 510.792 350.837C520.553 369.83 529.004 386.273 545.458 394.372C557.623 400.361 574.474 401.744 586.644 397.753C611.272 389.674 628.43 367.518 633.388 337.392C634.009 333.616 635.317 331.44 637.581 330.408C642.507 328.163 648.018 318.63 650.689 307.733C652.713 299.473 652.787 297.182 651.187 292.279C649.564 287.313 648.663 286.462 644.611 286.071C644.494 286.06 644.38 286.049 644.268 286.039L644.085 286.022C642.567 285.881 641.537 285.785 640.919 285.231C639.613 284.059 640.143 280.841 641.792 270.826C641.879 270.298 641.969 269.751 642.062 269.184C644.821 252.403 644.842 231.969 642.116 222.784C639.317 213.363 631.654 204.592 622.945 200.847C619.106 199.195 614.689 196.402 613.13 194.641ZM518.66 659.829C518.66 798.111 518.319 911.25 517.901 911.25C516.237 911.25 476.853 886.873 454.024 871.711L429.795 855.62L429.426 744.539L429.056 633.458L424.516 628.22C415.71 618.058 402.851 604.652 402.383 605.144C402.122 605.419 401.427 610.838 400.839 617.185C400.522 620.602 400.131 622.632 399.82 623.754C399.959 623.58 400.129 623.403 400.333 623.234C399.092 624.474 397.565 640.922 396.081 656.898C395.807 659.851 395.535 662.787 395.265 665.609C394.849 669.98 393.832 678.285 393.007 684.066C392.18 689.848 391.159 703.827 390.737 715.133C390.314 726.438 389.347 740.24 388.588 745.803C386.863 758.444 384.352 787.876 384.055 798.927C383.836 807.137 383.791 807.221 380.942 804.707C379.352 803.304 372.948 795.78 366.709 787.986C358.38 777.579 355.538 772.973 356.012 770.646C356.367 768.904 357.048 753.173 357.525 735.689C358.452 701.711 359.195 686.386 364.778 586.136C366.96 546.956 369.146 518.923 370.375 514.378C377.394 488.411 396.31 467.273 424.738 453.627C435.378 448.52 443.778 444.409 450.359 441.188C466.122 433.473 471.485 430.848 472.415 431.778C467.707 431.778 467.827 454.903 467.849 457.064C467.857 457.957 467.414 459.754 466.852 462.031C466.054 465.264 465.018 469.467 464.695 473.43C464.145 480.185 463.281 499.589 462.772 516.551C462.003 542.233 462.188 547.606 463.883 548.68C465.542 549.729 465.555 549.972 463.958 549.991C462.849 550.002 462.344 550.915 462.797 552.093C463.339 553.506 462.032 554.691 458.732 555.781C456.057 556.662 453.003 558.452 451.947 559.756C450.328 561.753 450.346 561.933 452.055 560.903C453.442 560.068 453.753 560.215 453.038 561.373C452.462 562.303 451.387 562.69 450.648 562.232C449.908 561.776 448.532 561.877 447.592 562.458C446.417 563.184 446.755 563.858 448.675 564.609C450.596 565.361 451.312 565.709 448.428 565.806C444.996 565.92 438.053 573.561 436.783 578.619C436.033 581.605 436.697 591.455 438.084 597.934C438.728 600.945 443.154 607.256 447.749 611.713C450.406 614.291 451.535 614.667 452.422 613.267C453.287 611.904 453.598 612.056 453.615 613.855C453.644 617.028 457.601 618.181 468.549 618.202C477.969 618.223 485.426 616.162 485.426 613.541C485.426 612.68 486.178 612.439 487.095 613.005C488.128 613.645 488.371 613.402 487.731 612.369C487.108 611.359 487.666 610.7 489.145 610.7C492.239 610.7 496.986 605.318 496.986 601.809C496.986 600.341 497.611 599.141 498.374 599.141C499.139 599.141 500.452 596.585 501.295 593.459C502.959 587.278 501.228 575.75 498.5 574.841C497.658 574.559 497.353 573.707 497.822 572.945C499.321 570.522 491.284 561.676 483.597 557.285L476.168 553.042L476.593 539.617C476.827 532.234 477.323 525.699 477.696 525.098C478.067 524.496 477.655 524.003 476.78 524.003C475.124 524.003 475.27 513.773 476.944 512.443C477.446 512.046 478.304 504.243 478.853 495.104C479.402 485.965 480.116 474.469 480.44 469.557C480.622 466.794 480.646 464.16 480.668 461.683C480.697 458.469 480.723 455.519 481.091 452.896C481.091 451.882 481.472 450.679 481.903 449.314C482.333 447.955 482.814 446.436 483.021 444.782L483.023 444.761C483.434 441.477 483.61 440.064 483.803 438.653C483.949 437.59 484.103 436.528 484.374 434.667V427.957C486.706 426.763 487.008 426.509 487.31 426.255C487.611 426.001 487.913 425.747 490.245 424.553C491.612 421.533 512.994 408.683 516.854 408.495C516.91 408.492 516.962 408.49 517.01 408.502C517.573 408.652 517.576 410.916 517.619 439.885C517.665 471.311 517.757 534.162 518.66 659.829ZM891.041 464.478C895.412 467.238 897.531 473.074 896.64 479.899C895.735 486.82 892.338 490.665 886.09 491.838C874.779 493.96 868.06 488.95 866.794 477.451C865.997 470.213 866.264 468.935 869.129 466.243C875.006 460.721 883.946 460.002 891.041 464.478ZM947.748 463.624C948.333 464.571 949.551 464.889 950.454 464.331C951.357 463.772 951.947 463.851 951.765 464.507C951.581 465.162 952.256 468.104 953.262 471.044C954.6 474.956 954.694 477.825 953.611 481.745C952.799 484.69 952.483 487.665 952.909 488.356C953.335 489.047 953.149 489.49 952.493 489.342C951.838 489.194 949.352 489.883 946.967 490.875C941.594 493.107 932.473 492.045 928.848 488.765C922.646 483.153 921.86 470.767 927.387 465.764C932.712 460.945 945.277 459.625 947.748 463.624ZM871.292 516.632C873.088 518.924 873.038 518.975 870.746 517.179C869.356 516.088 868.218 514.949 868.218 514.65C868.218 513.461 869.404 514.225 871.292 516.632ZM473.287 533.16C472.826 534.311 472.484 533.969 472.415 532.286C472.352 530.763 472.693 529.91 473.173 530.39C473.653 530.87 473.705 532.116 473.287 533.16ZM679.3 555.327C695.592 566.397 690.487 588.613 670.691 592.797C664.092 594.192 654.214 589.51 650.261 583.113C638.863 564.673 661.367 543.14 679.3 555.327ZM485.305 565.245C485.305 565.557 484.296 566.2 483.062 566.674C481.776 567.167 481.197 566.924 481.703 566.106C482.551 564.732 485.305 564.075 485.305 565.245ZM1004.95 568.105C1004.56 569.002 1002.17 574.611 999.632 580.572C997.097 586.532 994.84 591.617 994.616 591.87C994.392 592.124 989.203 590.247 983.084 587.701L971.959 583.068L979.067 575.961C982.976 572.052 988.576 568.028 991.512 567.018C997.577 564.933 1006.04 565.618 1004.95 568.105ZM478.632 569.288C478.293 569.838 479.817 570.164 482.021 570.01C484.741 569.823 486.027 570.429 486.027 571.902C486.027 573.094 486.678 574.618 487.472 575.289C488.313 575.998 487.86 576.169 486.389 575.696C483.338 574.715 483.249 575.357 485.851 579.538C488.443 583.704 489.988 592.131 488.159 592.131C486.195 592.131 486.392 596.074 488.419 597.326C489.414 597.941 489.696 597.725 489.117 596.79C488.584 595.927 488.809 594.813 489.617 594.313C490.424 593.815 491.085 594.466 491.085 595.761C491.085 597.057 492.06 599.093 493.252 600.285C494.444 601.477 495.42 603.129 495.42 603.954C495.42 604.78 494.165 603.921 492.632 602.045C490.322 599.217 489.519 598.96 487.936 600.542C486.354 602.125 486.369 602.373 488.014 601.987C489.107 601.733 490.329 602.426 490.731 603.53C491.15 604.685 490.816 605.14 489.943 604.601C489.11 604.085 487.37 604.722 486.075 606.017C483.207 608.884 484.36 610.609 487.438 608.055C488.649 607.049 489.64 606.852 489.64 607.617C489.64 608.381 487.978 609.764 485.947 610.69C483.915 611.615 482.652 613.021 483.142 613.811C483.635 614.61 482.547 615.236 480.694 615.219L477.358 615.187L480.97 612.361C482.957 610.806 483.77 609.52 482.776 609.502C480.73 609.466 480.956 606.459 483.138 604.679C483.932 604.032 483.038 603.939 481.151 604.474C478.494 605.225 477.985 605.003 478.9 603.484C479.832 601.935 479.642 601.875 477.996 603.198C475.51 605.196 465.005 606.156 462.507 604.611C461.536 604.012 460.741 604.21 460.741 605.051C460.741 605.892 459.316 606.581 457.575 606.581C454.681 606.581 454.621 606.425 456.89 604.766C459.209 603.07 459.18 602.789 456.444 600.445C453.327 597.777 452.331 599.038 455.25 601.957C456.598 603.305 456.591 603.691 455.214 603.691C454.241 603.691 452.827 602.065 452.071 600.078C450.534 596.035 447.366 595.034 448.641 598.995C449.327 601.127 449.21 601.184 447.9 599.356C446.742 597.742 446.891 596.78 448.486 595.585C449.816 594.588 450.691 591.302 450.797 586.915C450.961 580.142 452.99 569.13 453.346 573.09C453.463 574.399 454.869 573.944 457.806 571.645C461.197 568.993 463.895 568.289 470.673 568.289C475.391 568.289 478.972 568.739 478.632 569.288ZM1044.96 569.704C1065.42 574.04 1083.98 586.107 1090.83 599.532C1096.92 611.47 1092.24 634.422 1083.08 637.584C1080.4 638.508 1078.23 638.478 1076.67 637.496C1071.97 634.528 1071.25 631.652 1073.07 623.001C1074.02 618.45 1074.58 614.508 1074.32 614.24C1074.05 613.973 1071.62 620.374 1068.92 628.466C1063.15 645.746 1057.77 652.819 1050.38 652.819C1044.16 652.819 1040.9 650.861 1038.84 645.881C1037.38 642.343 1037.79 639.065 1041.61 623.937C1044.75 611.494 1045.64 605.696 1044.58 604.633C1042.42 602.479 1040.94 604.539 1037.99 613.806C1034.34 625.235 1031.5 629.475 1026.34 631.177C1020.66 633.054 1015.63 631.305 1011.46 626.001C1007.52 621 1007.58 618.702 1012.16 598.219C1017.05 576.36 1019.27 571.662 1025.73 569.454C1032.28 567.216 1033.28 567.229 1044.96 569.704ZM450.626 572.539C450.626 572.89 449.976 573.578 449.181 574.069C448.386 574.561 447.736 574.273 447.736 573.432C447.736 572.591 448.386 571.902 449.181 571.902C449.976 571.902 450.626 572.188 450.626 572.539ZM478.94 606.805C479.619 607.901 479.277 608.111 477.943 607.419C476.826 606.841 477.041 607.292 478.418 608.423C481.771 611.171 480.253 612.337 473.143 612.475C469.898 612.537 468.057 612.917 469.049 613.317C471.876 614.459 471.166 616.695 467.977 616.695C466.395 616.695 464.288 615.395 463.296 613.806C462.303 612.216 460.671 610.916 459.67 610.916C457.029 610.916 457.439 608.492 460.264 607.409C461.592 606.9 463.122 607.202 463.665 608.082C464.774 609.874 474.705 608.534 476.014 606.417C477.064 604.717 477.703 604.801 478.94 606.805ZM879.898 615.493C886.613 618.054 891.095 618.532 908.797 618.577C929.242 618.629 930.04 618.513 941.739 613.811C942.218 613.619 942.677 613.433 943.117 613.253C943.477 613.107 943.824 612.965 944.16 612.828C948.176 611.186 950.612 610.19 953.084 610.093C956.892 609.942 960.785 611.925 970.677 616.963C971.874 617.572 973.159 618.227 974.543 618.928C1001.63 632.651 1025.85 655.53 1039.38 680.159C1048.61 696.967 1048.96 700.059 1048.96 764.676V822.678L1041.41 832.647C1030.88 846.561 1006.91 869.965 993.248 879.668C986.933 884.153 974.94 891.306 966.596 895.563L951.423 903.303L904.796 903.721L858.171 904.14L845.828 898.356C814.221 883.544 794.545 864.657 772.514 827.976L767.192 819.117V762.896C767.192 702.029 796.575 645.881 811.986 633.791C814.883 631.517 816.886 629.92 818.298 628.794C821.031 626.614 821.565 626.189 822.172 625.977C822.263 625.946 822.356 625.919 822.458 625.891C822.521 625.875 822.588 625.858 822.66 625.839C823.426 625.644 824.801 625.293 828.964 623.31L830.092 622.773C855.687 610.583 860.244 608.412 864.089 609.306C864.922 609.5 865.722 609.837 866.695 610.248L866.894 610.332C869.675 611.504 875.527 613.826 879.898 615.493ZM1095.52 663.008C1108.11 695.351 1109.88 736.491 1099.89 764.651C1096.34 774.665 1082.49 798.759 1080.29 798.759C1079.68 798.759 1079.18 776.72 1079.18 749.783C1079.18 695.408 1078.42 689.875 1069.1 675.938C1066.7 672.362 1064.76 668.786 1064.78 667.991C1064.82 666.481 1087.46 652.93 1090.07 652.86C1090.89 652.838 1093.35 657.404 1095.52 663.008ZM405.383 690.027C405.021 691.417 404.723 690.28 404.723 687.498C404.723 684.717 405.021 683.579 405.383 684.969C405.747 686.36 405.747 688.637 405.383 690.027ZM648.54 424.821C648.01 424.035 641.95 420.345 635.072 416.621C628.194 412.898 621.855 409.852 620.983 409.852C619.842 409.852 619.4 478.938 619.4 657.661V905.471H677.198H734.996L735.08 788.068C735.125 723.498 735.643 668.065 736.231 664.886C736.819 661.707 736.697 657.072 735.958 654.584C734.968 651.243 735.295 647.847 737.211 641.579C741.208 628.502 736.893 603.03 747.039 595.057C761.787 583.469 772.964 604.246 786.013 603.89C797.674 603.571 797.943 603.483 832.051 588.83C837.349 586.554 842.388 584.691 843.249 584.691C844.109 584.691 844.812 584.034 844.812 583.232C844.812 582.428 818.641 555.06 786.653 522.411L754.507 484.367L706.819 452.531C669.525 434.432 667.676 433.738 669.116 438.39C673.976 454.093 677.468 487.598 677.059 514.591L676.751 534.798L684.561 539.383C694.575 545.261 700.694 552.402 703.703 561.716C706.653 570.853 706.698 574.92 703.944 584.193C698.976 600.918 685.577 611.001 668.142 611.131C634.247 611.382 617.024 571.035 640.854 547.205C644.685 543.374 650.683 539.226 654.496 537.769L661.303 535.17V521.002C661.303 514.026 661.227 506.231 661.173 500.742L661.173 500.717L661.153 498.716C661.083 491.413 661.125 484.871 661.145 481.8C661.15 481.027 661.153 480.474 661.153 480.183C661.153 480.183 658.915 470.523 658.821 468.734C658.728 466.945 657.971 462.882 657.14 459.703C656.308 456.524 654.251 447.697 652.566 440.087C650.882 432.478 649.07 425.609 648.54 424.821ZM952.483 381.09C956.843 383.551 960.17 385.539 960.409 387.111L961.323 387.744C963.06 386.984 974.482 395.33 982.291 403.862C990.267 412.578 999.808 431.252 1002.18 442.795C1008.85 475.191 996.845 515.195 971.542 544.932C949.605 570.714 927.296 581.41 908.071 575.363C899.43 572.645 882.732 560.927 877.971 554.242C876.229 551.795 874.213 550.392 873.24 550.95C872.307 551.483 871.998 551.417 872.551 550.801C873.106 550.186 871.093 546.344 868.08 542.262C865.066 538.18 861.148 531.589 859.372 527.616C853.773 515.086 849.079 501.916 849.915 501.079C850.358 500.637 852.37 502.2 854.384 504.553C856.493 507.015 863.571 514.338 863.116 512.883C863.777 512.991 865.86 514.911 867.744 517.15C873.476 523.963 888.47 530.053 903.658 531.738C914.989 532.997 918.566 532.835 927.5 530.659C938.82 527.902 952.688 520.977 952.1 518.376C951.902 517.498 952.552 516.942 953.545 517.14C954.539 517.339 955.189 516.689 954.99 515.695C954.792 514.702 955.377 514.052 956.293 514.25C957.208 514.449 959.322 512.643 960.989 510.237C962.657 507.831 964.663 505.881 965.446 505.902C966.23 505.924 967.112 504.641 967.407 503.051C967.7 501.462 969.198 497.377 970.734 493.974C972.27 490.571 973.12 487.129 972.623 486.326C972.126 485.521 972.5 483.922 973.455 482.771C974.605 481.386 974.861 478.36 974.215 473.804C972.786 463.718 968.882 450.261 967.613 451.045C967.009 451.419 966.604 450.594 966.713 449.211C966.821 447.83 966.122 446.853 965.157 447.042C964.192 447.231 963.742 446.502 964.157 445.421C965.73 441.319 940.887 422.8 937.016 425.193C936.102 425.758 935.798 425.545 936.317 424.704C937.885 422.17 924.254 419.24 911.28 419.323C890.567 419.456 870.561 429.473 858.352 445.825C854.157 451.443 853.546 452.247 854.114 457.064C853.719 453.715 854.508 460.414 854.114 457.064C852.577 456.668 851.631 461.286 849.657 464.91L846.987 469.817L846.506 464.783C845.824 457.662 848.978 437.533 851.716 431.526C852.984 428.745 854.063 425.819 854.114 425.024C854.163 424.229 855.83 422.04 857.817 420.159C859.176 418.871 861.357 416.242 862.77 414.538C863.423 413.751 863.912 413.161 864.081 412.993C864.803 412.271 884.748 392.777 884.31 393.486C885.607 393.054 886.139 392.698 887.086 392.065C887.723 391.64 888.547 391.09 889.915 390.307C893.224 388.417 898.013 385.92 898.709 386.227C898.664 386.25 898.678 386.262 898.76 386.262L898.733 386.24L898.709 386.227C899.052 386.051 902.858 385.225 906.459 384.444C909.105 383.871 911.645 383.32 912.618 383.068C918.408 381.576 936.329 379.528 936.329 380.828C937.213 380.436 944.276 379.759 952.019 380.828L952.483 381.09Z" fill="#09244B"/>
<path d="M960.409 387.111C960.17 385.539 956.843 383.551 952.483 381.09L952.019 380.828C944.276 379.759 937.213 380.436 936.329 380.828C936.329 379.528 918.408 381.576 912.618 383.068C911.645 383.32 909.105 383.871 906.459 384.444C902.858 385.225 899.052 386.051 898.709 386.227L898.733 386.24L898.76 386.262C898.678 386.262 898.664 386.25 898.709 386.227C898.013 385.92 893.224 388.417 889.915 390.307C888.547 391.09 887.723 391.64 887.086 392.065C886.139 392.698 885.607 393.054 884.31 393.486C884.748 392.777 864.803 412.271 864.081 412.993C863.912 413.161 863.423 413.751 862.77 414.538C861.357 416.242 859.176 418.871 857.817 420.159C855.83 422.04 854.163 424.229 854.114 425.024C854.063 425.819 852.984 428.745 851.716 431.526C848.978 437.533 845.824 457.662 846.506 464.783L846.987 469.817L849.657 464.91C851.631 461.286 852.577 456.668 854.114 457.064C853.719 453.715 854.508 460.414 854.114 457.064C853.546 452.247 854.157 451.443 858.352 445.825C870.561 429.473 890.567 419.456 911.28 419.323C924.254 419.24 937.885 422.17 936.317 424.704C935.798 425.545 936.102 425.758 937.016 425.193C940.887 422.8 965.73 441.319 964.157 445.421C963.742 446.502 964.192 447.231 965.157 447.042C966.122 446.853 966.821 447.83 966.713 449.211C966.604 450.594 967.009 451.419 967.613 451.045C968.882 450.261 972.786 463.718 974.215 473.804C974.861 478.36 974.605 481.386 973.455 482.771C972.5 483.922 972.126 485.521 972.623 486.326C973.12 487.129 972.27 490.571 970.734 493.974C969.198 497.377 967.7 501.462 967.407 503.051C967.112 504.641 966.23 505.924 965.446 505.902C964.663 505.881 962.657 507.831 960.989 510.237C959.322 512.643 957.208 514.449 956.293 514.25C955.377 514.052 954.792 514.702 954.99 515.695C955.189 516.689 954.539 517.339 953.545 517.14C952.552 516.942 951.902 517.498 952.1 518.376C952.688 520.977 938.82 527.902 927.5 530.659C918.566 532.835 914.989 532.997 903.658 531.738C888.47 530.053 873.476 523.963 867.744 517.15C865.86 514.911 863.777 512.991 863.116 512.883C863.571 514.338 856.493 507.015 854.384 504.553C852.37 502.2 850.358 500.637 849.915 501.079C849.079 501.916 853.773 515.086 859.372 527.616C861.148 531.589 865.066 538.18 868.08 542.262C871.093 546.344 873.106 550.186 872.551 550.801C871.998 551.417 872.307 551.483 873.24 550.95C874.213 550.392 876.229 551.795 877.971 554.242C882.732 560.927 899.43 572.645 908.071 575.363C927.296 581.41 949.605 570.714 971.542 544.932C996.845 515.195 1008.85 475.191 1002.18 442.795C999.808 431.252 990.267 412.578 982.291 403.862C974.482 395.33 963.06 386.984 961.323 387.744L960.409 387.111Z" fill="white"/>
<path d="M635.072 416.621C641.95 420.345 648.01 424.035 648.54 424.821C649.07 425.609 650.882 432.478 652.566 440.087C654.251 447.697 656.308 456.524 657.14 459.703C657.971 462.882 658.728 466.945 658.821 468.734C658.915 470.523 661.153 480.183 661.153 480.183C661.153 480.474 661.15 481.027 661.145 481.8C661.125 484.871 661.083 491.413 661.153 498.716L661.173 500.717L661.173 500.742C661.227 506.231 661.303 514.026 661.303 521.002V535.17L654.496 537.769C650.683 539.226 644.685 543.374 640.854 547.205C617.024 571.035 634.247 611.382 668.142 611.131C685.577 611.001 698.976 600.918 703.944 584.193C706.698 574.92 706.653 570.853 703.703 561.716C700.694 552.402 694.575 545.261 684.561 539.383L676.751 534.798L677.059 514.591C677.468 487.598 673.976 454.093 669.116 438.39C667.676 433.738 669.525 434.432 706.819 452.531L754.507 484.367L786.653 522.411C818.641 555.06 844.812 582.428 844.812 583.232C844.812 584.034 844.109 584.691 843.249 584.691C842.388 584.691 837.349 586.554 832.051 588.83C797.943 603.483 797.674 603.571 786.013 603.89C772.964 604.246 761.787 583.469 747.039 595.057C736.893 603.03 741.208 628.502 737.211 641.579C735.295 647.847 734.968 651.243 735.958 654.584C736.697 657.072 736.819 661.707 736.231 664.886C735.643 668.065 735.125 723.498 735.08 788.068L734.996 905.471H677.198H619.4V657.661C619.4 478.938 619.842 409.852 620.983 409.852C621.855 409.852 628.194 412.898 635.072 416.621Z" fill="white"/>
<path d="M708.748 572.66C708.748 594.194 690.97 611.674 669.012 611.674C647.054 611.674 629.276 594.194 629.276 572.66C629.276 551.126 647.054 533.646 669.012 533.646C690.97 533.646 708.748 551.126 708.748 572.66Z" fill="#09244B" stroke="white" stroke-width="1.44495"/>
<path d="M689.977 571.937C689.977 582.698 681.091 591.444 670.102 591.444C659.113 591.444 650.228 582.698 650.228 571.937C650.228 561.176 659.113 552.43 670.102 552.43C681.091 552.43 689.977 561.176 689.977 571.937Z" fill="white" stroke="white" stroke-width="1.44495"/>
<path d="M681.221 571.295C681.221 577.71 675.914 582.934 669.337 582.934C662.759 582.934 657.452 577.71 657.452 571.295C657.452 564.88 662.759 559.656 669.337 559.656C675.914 559.656 681.221 564.88 681.221 571.295Z" fill="#09244B" stroke="white" stroke-width="1.44495"/>
<path d="M507.899 591.444C507.899 612.978 490.121 630.457 468.163 630.457C446.205 630.457 428.427 612.978 428.427 591.444C428.427 569.909 446.205 552.43 468.163 552.43C490.121 552.43 507.899 569.909 507.899 591.444Z" fill="#09244B" stroke="white" stroke-width="1.44495"/>
<path d="M489.128 590.722C489.128 601.483 480.242 610.228 469.253 610.228C458.265 610.228 449.379 601.483 449.379 590.722C449.379 579.96 458.265 571.215 469.253 571.215C480.242 571.215 489.128 579.96 489.128 590.722Z" fill="white" stroke="white" stroke-width="1.44495"/>
<path d="M480.374 590.079C480.374 596.494 475.066 601.718 468.489 601.718C461.912 601.718 456.604 596.494 456.604 590.079C456.604 583.664 461.912 578.44 468.489 578.44C475.066 578.44 480.374 583.664 480.374 590.079Z" fill="#09244B" stroke="white" stroke-width="1.44495"/>
<path d="M262.041 1231.26C213.675 1231.26 183.356 1197.09 183.356 1145.59C183.356 1094.58 214.878 1059.93 263.725 1059.93C301.022 1059.93 328.213 1081.59 334.469 1116.48H312.331C305.834 1093.14 288.028 1079.18 262.762 1079.18C227.391 1079.18 204.772 1106.61 204.772 1145.59C204.772 1184.33 226.428 1212.01 261.8 1212.01C287.787 1212.01 305.834 1198.29 312.091 1174.71H334.228C327.972 1209.6 300.059 1231.26 262.041 1231.26ZM356.619 1229.81V1061.37H376.351V1229.81H356.619ZM413.488 1086.4C406.269 1086.4 400.735 1081.11 400.735 1073.65C400.735 1066.19 406.269 1060.89 413.488 1060.89C420.706 1060.89 426.241 1066.19 426.241 1073.65C426.241 1081.11 420.706 1086.4 413.488 1086.4ZM403.381 1229.81V1107.09H423.113V1229.81H403.381ZM510.3 1105.65C537.972 1105.65 559.869 1120.81 559.869 1161.48V1229.81H540.137V1162.68C540.137 1137.17 528.347 1123.7 506.931 1123.7C483.831 1123.7 469.875 1140.78 469.875 1168.45V1229.81H450.144V1107.09H467.228L469.875 1123.7C477.094 1114.31 489.606 1105.65 510.3 1105.65ZM595.131 1086.4C587.913 1086.4 582.378 1081.11 582.378 1073.65C582.378 1066.19 587.913 1060.89 595.131 1060.89C602.35 1060.89 607.885 1066.19 607.885 1073.65C607.885 1081.11 602.35 1086.4 595.131 1086.4ZM585.025 1229.81V1107.09H604.756V1229.81H585.025ZM686.89 1231.26C651.037 1231.26 627.456 1206.95 627.456 1168.69C627.456 1131.16 651.759 1105.65 687.372 1105.65C717.45 1105.65 736.459 1122.49 741.512 1149.44H720.818C717.209 1133.08 705.178 1123.22 687.131 1123.22C663.55 1123.22 647.668 1141.98 647.668 1168.69C647.668 1195.4 663.55 1213.69 687.131 1213.69C704.697 1213.69 716.728 1203.58 720.578 1187.94H741.512C736.7 1214.41 716.728 1231.26 686.89 1231.26ZM871.666 1211.77H877.922V1229.81H867.094C850.732 1229.81 845.197 1222.83 844.957 1210.8C837.257 1221.87 824.985 1231.26 803.81 1231.26C776.86 1231.26 758.572 1217.78 758.572 1195.4C758.572 1170.86 775.657 1157.14 807.9 1157.14H843.994V1148.72C843.994 1132.84 832.685 1123.22 813.435 1123.22C796.11 1123.22 784.56 1131.4 782.153 1143.91H762.422C765.31 1119.85 784.8 1105.65 814.397 1105.65C845.678 1105.65 863.725 1121.29 863.725 1149.93V1203.58C863.725 1210.08 866.132 1211.77 871.666 1211.77ZM843.994 1179.76V1173.75H805.975C788.41 1173.75 778.544 1180.24 778.544 1194.2C778.544 1206.23 788.891 1214.41 805.253 1214.41C829.797 1214.41 843.994 1200.22 843.994 1179.76ZM893.091 1229.81V1061.37H912.822V1229.81H893.091ZM1013.66 1229.81H992.001L1056.25 1061.37H1081.03L1145.04 1229.81H1122.66L1104.85 1184.33H1031.46L1013.66 1229.81ZM1068.04 1084.23L1037.72 1165.33H1098.6L1068.04 1084.23ZM1164.1 1229.81V1061.37H1185.03V1229.81H1164.1ZM197.553 1503.81H175.897L240.144 1335.37H264.928L328.934 1503.81H306.556L288.75 1458.33H215.359L197.553 1503.81ZM251.934 1358.23L221.616 1439.33H282.494L251.934 1358.23ZM337.467 1463.39H357.68C358.402 1477.83 371.155 1488.41 391.608 1488.41C408.933 1488.41 421.205 1480.95 421.205 1469.64C421.205 1454.24 407.73 1453.04 389.442 1450.88C362.011 1447.51 340.114 1441.97 340.114 1416.47C340.114 1394.09 360.567 1379.41 388.239 1379.65C416.152 1379.89 436.364 1392.88 438.289 1418.39H418.077C416.633 1405.88 405.083 1396.49 388.239 1396.49C371.155 1396.49 359.605 1403.71 359.605 1415.02C359.605 1428.5 372.598 1430.18 390.405 1432.35C418.317 1435.72 440.695 1441.01 440.695 1468.2C440.695 1491.06 418.798 1505.26 391.608 1505.26C359.845 1505.26 337.948 1490.34 337.467 1463.39ZM455.195 1463.39H475.407C476.129 1477.83 488.882 1488.41 509.335 1488.41C526.66 1488.41 538.932 1480.95 538.932 1469.64C538.932 1454.24 525.457 1453.04 507.17 1450.88C479.739 1447.51 457.842 1441.97 457.842 1416.47C457.842 1394.09 478.295 1379.41 505.967 1379.65C533.879 1379.89 554.092 1392.88 556.017 1418.39H535.804C534.36 1405.88 522.81 1396.49 505.967 1396.49C488.882 1396.49 477.332 1403.71 477.332 1415.02C477.332 1428.5 490.326 1430.18 508.132 1432.35C536.045 1435.72 558.423 1441.01 558.423 1468.2C558.423 1491.06 536.526 1505.26 509.335 1505.26C477.573 1505.26 455.676 1490.34 455.195 1463.39ZM590.432 1360.4C583.213 1360.4 577.679 1355.11 577.679 1347.65C577.679 1340.19 583.213 1334.89 590.432 1334.89C597.65 1334.89 603.185 1340.19 603.185 1347.65C603.185 1355.11 597.65 1360.4 590.432 1360.4ZM580.325 1503.81V1381.09H600.057V1503.81H580.325ZM636.231 1471.81V1399.14H614.094V1381.09H636.231V1346.68H655.963V1381.09H687.725V1399.14H655.963V1471.57C655.963 1481.92 659.572 1485.77 670.159 1485.77H689.65V1503.81H668.234C644.653 1503.81 636.231 1493.47 636.231 1471.81ZM813.39 1485.77H819.646V1503.81H808.818C792.455 1503.81 786.921 1496.83 786.68 1484.8C778.98 1495.87 766.708 1505.26 745.533 1505.26C718.583 1505.26 700.296 1491.78 700.296 1469.4C700.296 1444.86 717.38 1431.14 749.624 1431.14H785.718V1422.72C785.718 1406.84 774.408 1397.22 755.158 1397.22C737.833 1397.22 726.283 1405.4 723.877 1417.91H704.146C707.033 1393.85 726.524 1379.65 756.121 1379.65C787.402 1379.65 805.449 1395.29 805.449 1423.93V1477.58C805.449 1484.08 807.855 1485.77 813.39 1485.77ZM785.718 1453.76V1447.75H747.699C730.133 1447.75 720.268 1454.24 720.268 1468.2C720.268 1480.23 730.615 1488.41 746.977 1488.41C771.521 1488.41 785.718 1474.22 785.718 1453.76ZM894.971 1379.65C922.643 1379.65 944.54 1394.81 944.54 1435.48V1503.81H924.808V1436.68C924.808 1411.17 913.018 1397.7 891.602 1397.7C868.502 1397.7 854.546 1414.78 854.546 1442.45V1503.81H834.815V1381.09H851.899L854.546 1397.7C861.765 1388.31 874.277 1379.65 894.971 1379.65ZM1023.39 1505.26C987.536 1505.26 963.955 1480.95 963.955 1442.69C963.955 1405.16 988.258 1379.65 1023.87 1379.65C1053.95 1379.65 1072.96 1396.49 1078.01 1423.44H1057.32C1053.71 1407.08 1041.68 1397.22 1023.63 1397.22C1000.05 1397.22 984.167 1415.98 984.167 1442.69C984.167 1469.4 1000.05 1487.69 1023.63 1487.69C1041.2 1487.69 1053.23 1477.58 1057.08 1461.94H1078.01C1073.2 1488.41 1053.23 1505.26 1023.39 1505.26ZM1156.19 1505.26C1119.37 1505.26 1095.31 1479.99 1095.31 1442.45C1095.31 1405.16 1118.89 1379.65 1153.54 1379.65C1188.19 1379.65 1210.81 1401.55 1211.77 1437.88C1211.77 1440.53 1211.53 1443.42 1211.29 1446.3H1116.01V1447.99C1116.73 1471.33 1131.41 1487.69 1154.75 1487.69C1172.07 1487.69 1185.55 1478.55 1189.64 1462.67H1209.61C1204.8 1487.21 1184.58 1505.26 1156.19 1505.26ZM1117.21 1429.94H1190.6C1188.67 1408.77 1174.24 1396.97 1153.78 1396.97C1135.74 1396.97 1119.13 1409.97 1117.21 1429.94Z" fill="#09244B"/>
<rect x="7.56504" y="7.56504" width="1351.62" height="1563.44" rx="83.8725" stroke="#09244B" stroke-width="15.1301"/>
</svg>
