<svg width="1093" height="1541" viewBox="0 0 1093 1541" fill="none" xmlns="http://www.w3.org/2000/svg">
<path d="M774.748 406.624C775.333 407.571 776.551 407.889 777.454 407.331C778.357 406.772 778.947 406.851 778.765 407.507C778.581 408.162 779.256 411.104 780.262 414.044C781.6 417.956 781.694 420.825 780.611 424.745C779.799 427.69 779.483 430.665 779.909 431.356C780.335 432.047 780.149 432.49 779.493 432.342C778.838 432.194 776.352 432.883 773.967 433.875C768.594 436.107 759.473 435.045 755.848 431.765C749.646 426.153 748.86 413.767 754.387 408.764C759.712 403.945 772.277 402.625 774.748 406.624Z" fill="white"/>
<path d="M718.041 407.478C722.412 410.238 724.531 416.074 723.64 422.899C722.735 429.82 719.338 433.665 713.09 434.838C701.779 436.96 695.06 431.95 693.794 420.451C692.997 413.213 693.264 411.935 696.129 409.243C702.006 403.721 710.946 403.002 718.041 407.478Z" fill="white"/>
<path fill-rule="evenodd" clip-rule="evenodd" d="M706.898 558.493C713.613 561.054 718.095 561.532 735.797 561.577C756.242 561.629 757.04 561.513 768.739 556.811C769.218 556.619 769.677 556.433 770.117 556.253C770.477 556.107 770.824 555.965 771.16 555.828C775.176 554.186 777.612 553.19 780.084 553.093C783.892 552.942 787.785 554.925 797.677 559.963C798.874 560.573 800.159 561.227 801.543 561.928C828.63 575.651 852.854 598.53 866.379 623.159C875.607 639.967 875.958 643.059 875.958 707.676V765.678L868.412 775.647C857.88 789.561 833.908 812.965 820.248 822.668C813.933 827.153 801.94 834.306 793.596 838.563L778.424 846.303L731.796 846.721L685.171 847.14L672.828 841.356C641.221 826.544 621.545 807.657 599.514 770.976L594.192 762.117V705.896C594.192 645.029 623.575 588.881 638.986 576.791C641.883 574.517 643.886 572.92 645.298 571.794C648.031 569.614 648.565 569.189 649.172 568.977C649.263 568.946 649.356 568.919 649.458 568.891C649.521 568.875 649.588 568.858 649.66 568.839C650.426 568.644 651.801 568.293 655.964 566.31L657.092 565.773C682.687 553.583 687.244 551.412 691.089 552.306C691.922 552.5 692.722 552.837 693.695 553.248L693.894 553.332C696.675 554.504 702.527 556.826 706.898 558.493ZM757.075 688.101C756.099 686.279 755.569 677.424 755.708 665.288L755.935 645.455L736.27 645.053L716.606 644.651V666.934C716.606 685.919 716.268 689.347 714.32 690.094C713.063 690.576 703.364 690.971 692.767 690.971C681.459 690.971 673.299 691.556 673.016 692.388C672.752 693.169 672.736 701.604 672.98 711.135L673.426 728.466L695.377 728.863L717.328 729.262V751.659V774.056L733.945 774.475C758.774 775.102 756.576 777.393 756.449 751.009L756.342 728.61L778.016 728.215L799.691 727.817L800.413 710.129C801.02 695.287 800.787 692.303 798.968 691.589C797.776 691.121 788.221 690.815 777.735 690.909C759.869 691.068 758.569 690.891 757.075 688.101Z" fill="white"/>
<path d="M755.708 665.288C755.569 677.424 756.099 686.279 757.075 688.101C758.569 690.891 759.869 691.068 777.735 690.909C788.221 690.815 797.776 691.121 798.968 691.589C800.787 692.303 801.02 695.287 800.413 710.129L799.691 727.817L778.016 728.215L756.342 728.61L756.449 751.009C756.576 777.393 758.774 775.102 733.945 774.475L717.328 774.056V751.659V729.262L695.377 728.863L673.426 728.466L672.98 711.135C672.736 701.604 672.752 693.169 673.016 692.388C673.299 691.556 681.459 690.971 692.767 690.971C703.364 690.971 713.063 690.576 714.32 690.094C716.268 689.347 716.606 685.919 716.606 666.934V644.651L736.27 645.053L755.935 645.455L755.708 665.288Z" fill="#09244B"/>
<path d="M871.957 512.704C892.423 517.04 910.981 529.107 917.83 542.532C923.92 554.47 919.245 577.422 910.078 580.584C907.4 581.508 905.23 581.478 903.672 580.495C898.969 577.528 898.252 574.652 900.067 566.001C901.022 561.45 901.584 557.508 901.317 557.24C901.05 556.973 898.621 563.374 895.92 571.466C890.15 588.746 884.765 595.819 877.377 595.819C871.159 595.819 867.904 593.861 865.84 588.88C864.375 585.343 864.789 582.065 868.608 566.938C871.749 554.494 872.64 548.696 871.577 547.633C869.423 545.479 867.943 547.539 864.988 556.806C861.344 568.235 858.502 572.475 853.343 574.177C847.659 576.054 842.63 574.305 838.457 569.001C834.524 564 834.582 561.702 839.162 541.219C844.051 519.36 846.267 514.662 852.728 512.454C859.278 510.216 860.28 510.229 871.957 512.704Z" fill="white"/>
<path d="M831.951 511.105C831.56 512.002 829.168 517.611 826.632 523.572C824.097 529.532 821.84 534.617 821.616 534.87C821.392 535.124 816.203 533.247 810.084 530.701L798.959 526.068L806.067 518.961C809.976 515.052 815.576 511.028 818.513 510.018C824.577 507.933 833.036 508.618 831.951 511.105Z" fill="white"/>
<path d="M922.524 606.008C935.109 638.351 936.876 679.491 926.891 707.651C923.341 717.665 909.491 741.759 907.286 741.759C906.678 741.759 906.181 719.72 906.181 692.783C906.181 638.408 905.425 632.875 896.096 618.938C893.702 615.362 891.76 611.786 891.78 610.991C891.819 609.481 914.465 595.93 917.067 595.86C917.889 595.838 920.345 600.404 922.524 606.008Z" fill="white"/>
<path fill-rule="evenodd" clip-rule="evenodd" d="M344.901 854.25C345.319 854.25 345.66 741.111 345.66 602.829C344.757 477.162 344.665 414.311 344.619 382.885C344.576 353.916 344.573 351.652 344.01 351.502C343.962 351.49 343.91 351.492 343.854 351.495C339.994 351.683 318.612 364.533 317.245 367.553C314.913 368.747 314.611 369.001 314.31 369.255C314.008 369.509 313.706 369.763 311.374 370.957V377.667C311.103 379.528 310.949 380.59 310.803 381.654C310.61 383.064 310.434 384.477 310.023 387.761L310.021 387.782C309.814 389.436 309.333 390.955 308.903 392.314C308.472 393.679 308.091 394.882 308.091 395.896C307.723 398.519 307.697 401.469 307.668 404.684C307.646 407.16 307.622 409.794 307.44 412.557C307.116 417.469 306.402 428.965 305.853 438.104C305.304 447.243 304.446 455.046 303.944 455.444C302.27 456.773 302.124 467.003 303.78 467.003C304.655 467.003 305.067 467.496 304.696 468.098C304.323 468.699 303.827 475.234 303.593 482.617L303.168 496.042L310.597 500.285C318.284 504.676 326.321 513.522 324.822 515.945C324.353 516.707 324.658 517.559 325.5 517.841C328.228 518.75 329.959 530.278 328.295 536.459C327.452 539.585 326.139 542.141 325.374 542.141C324.611 542.141 323.986 543.341 323.986 544.81C323.986 548.318 319.239 553.7 316.145 553.7C314.666 553.7 314.108 554.359 314.731 555.369C315.371 556.402 315.128 556.645 314.095 556.005C313.178 555.439 312.426 555.68 312.426 556.541C312.426 559.162 304.969 561.223 295.549 561.202C284.601 561.181 280.644 560.028 280.615 556.855C280.598 555.056 280.288 554.904 279.422 556.267C278.535 557.667 277.406 557.291 274.749 554.713C270.154 550.255 265.728 543.945 265.084 540.934C263.697 534.455 263.033 524.605 263.783 521.62C265.053 516.561 271.996 508.92 275.428 508.806C278.312 508.709 277.596 508.361 275.675 507.609C273.755 506.858 273.417 506.184 274.592 505.458C275.532 504.877 276.908 504.776 277.648 505.232C278.387 505.69 279.462 505.303 280.038 504.373C280.753 503.215 280.442 503.068 279.055 503.903C277.346 504.933 277.328 504.753 278.947 502.756C280.003 501.452 283.057 499.662 285.732 498.781C289.032 497.691 290.339 496.506 289.797 495.093C289.344 493.915 289.849 493.002 290.958 492.991C292.555 492.972 292.542 492.729 290.883 491.68C289.188 490.606 289.003 485.233 289.772 459.551C290.281 442.589 291.145 423.185 291.695 416.43C292.018 412.467 293.054 408.264 293.852 405.031C294.414 402.754 294.857 400.957 294.849 400.064C294.827 397.903 294.707 374.778 299.415 374.778C298.485 373.848 293.122 376.473 277.359 384.188C270.778 387.409 262.378 391.52 251.738 396.627C223.31 410.273 204.394 431.411 197.375 457.378C196.146 461.923 193.96 489.956 191.778 529.136C186.195 629.385 185.452 644.711 184.525 678.689C184.048 696.173 183.367 711.904 183.012 713.646C182.538 715.973 185.38 720.579 193.709 730.986C199.948 738.78 206.352 746.304 207.942 747.707C210.791 750.221 210.836 750.137 211.055 741.927C211.352 730.876 213.863 701.444 215.588 688.803C216.347 683.24 217.314 669.438 217.737 658.133C218.159 646.828 219.18 632.848 220.007 627.066C220.832 621.285 221.849 612.98 222.265 608.609C222.535 605.787 222.807 602.851 223.081 599.898C224.565 583.922 226.092 567.474 227.333 566.234C227.129 566.403 226.959 566.58 226.82 566.754C225.949 567.839 226.254 568.788 226.82 566.754C227.131 565.632 227.522 563.602 227.839 560.185C228.427 553.838 229.122 548.419 229.383 548.144C229.851 547.652 242.71 561.058 251.516 571.22L256.056 576.458L256.426 687.539L256.795 798.62L281.024 814.711C303.853 829.873 343.237 854.25 344.901 854.25ZM226.82 566.754C225.949 567.839 226.254 568.788 226.82 566.754V566.754Z" fill="white"/>
<path d="M440.13 137.641C435.363 132.258 420.86 123.572 412.972 121.378C398.934 117.472 380.741 117.635 365.804 121.802C351.351 125.835 334.429 136.525 332.417 142.863C331.794 144.826 330.856 146.53 329.83 148.394C327.808 152.066 325.446 156.356 324.486 164.466C324.534 164.133 324.25 165.362 324.191 165.766L324.486 164.466C324.183 166.555 322.084 181.72 322.138 192.432C322.173 199.323 323.225 210.161 324.477 216.519C325.73 222.877 326.755 228.2 326.755 228.349C326.755 228.496 324.646 228.821 322.069 229.071C314.948 229.759 312.841 235.25 315.065 247.321C317.127 258.505 327.295 272.654 327.295 272.654C327.295 272.654 330.941 280.693 333.573 285.695C335.023 288.448 336.42 291.168 337.792 293.837C347.553 312.83 356.004 329.273 372.458 337.372C384.623 343.361 401.474 344.744 413.644 340.753C438.272 332.674 455.43 310.518 460.388 280.392C461.009 276.616 462.317 274.44 464.581 273.408C469.507 271.163 475.018 261.63 477.689 250.733C479.713 242.473 479.787 240.182 478.187 235.279C476.564 230.313 475.663 229.462 471.611 229.071C471.494 229.06 471.38 229.049 471.268 229.039C471.206 229.033 471.145 229.027 471.085 229.022C469.567 228.881 468.537 228.785 467.919 228.231C466.613 227.059 467.143 223.841 468.792 213.826C468.879 213.298 468.969 212.751 469.062 212.184C471.821 195.403 471.842 174.969 469.116 165.784C466.317 156.363 458.654 147.592 449.945 143.847C446.106 142.195 441.689 139.402 440.13 137.641Z" fill="white"/>
<path d="M698.292 459.632C700.088 461.924 700.038 461.975 697.746 460.179C696.356 459.088 695.218 457.949 695.218 457.65C695.218 456.461 696.404 457.225 698.292 459.632Z" fill="#09244B"/>
<path fill-rule="evenodd" clip-rule="evenodd" d="M245.115 106.929C315.13 50.8133 419.458 9.38938 509.408 1.99122C529.466 0.341084 569.429 0.33531 591.181 1.97967C649.957 6.4229 710.473 22.998 765.298 49.6718C812.789 72.778 851.875 100.075 889.376 136.324C938.884 184.182 975.21 236.806 1001.59 298.881C1016.96 335.051 1027.73 376.208 1033.53 420.98C1036.51 443.937 1036.08 512.302 1032.82 533.686C1027.15 570.868 1022.96 589.125 1012.94 620.261C994.808 676.618 961.339 736.956 924.157 780.315C907.471 799.774 874.765 831.562 856.33 846.237C826.531 869.957 804.757 883.777 770.355 900.801C720.867 925.292 669.575 939.803 606.353 947.206C585.128 949.69 517.023 949.688 497.259 947.201C396.864 934.574 315.482 900.628 238.66 839.333C223.076 826.897 189.92 794.629 174.782 777.161C148.596 746.947 120.613 702.663 104.607 666.112C78.7515 607.058 68.0241 562.649 63.656 496.583C61.2386 460.007 63.9595 425.201 72.5627 382.689C94.198 275.772 154.31 179.706 245.115 106.929ZM440.13 137.641C435.363 132.258 420.86 123.572 412.972 121.378C398.934 117.472 380.741 117.635 365.804 121.802C351.351 125.835 334.429 136.525 332.417 142.863C331.794 144.826 330.856 146.53 329.83 148.394C327.808 152.066 325.446 156.356 324.486 164.466C324.183 166.555 322.084 181.72 322.138 192.432C322.173 199.323 323.225 210.161 324.477 216.519C325.73 222.877 326.755 228.2 326.755 228.349C326.755 228.496 324.646 228.821 322.069 229.071C314.948 229.759 312.841 235.25 315.065 247.321C317.127 258.505 327.295 272.654 327.295 272.654C327.295 272.654 330.941 280.693 333.573 285.695C335.023 288.448 336.42 291.168 337.792 293.837C347.553 312.83 356.004 329.273 372.458 337.372C384.623 343.361 401.474 344.744 413.644 340.753C438.272 332.674 455.43 310.518 460.388 280.392C461.009 276.616 462.317 274.44 464.581 273.408C469.507 271.163 475.018 261.63 477.689 250.733C479.713 242.473 479.787 240.182 478.187 235.279C476.564 230.313 475.663 229.462 471.611 229.071C471.494 229.06 471.38 229.049 471.268 229.039L471.085 229.022C469.567 228.881 468.537 228.785 467.919 228.231C466.613 227.059 467.143 223.841 468.792 213.826C468.879 213.298 468.969 212.751 469.062 212.184C471.821 195.403 471.842 174.969 469.116 165.784C466.317 156.363 458.654 147.592 449.945 143.847C446.106 142.195 441.689 139.402 440.13 137.641ZM345.66 602.829C345.66 741.111 345.319 854.25 344.901 854.25C343.237 854.25 303.853 829.873 281.024 814.711L256.795 798.62L256.426 687.539L256.056 576.458L251.516 571.22C242.71 561.058 229.851 547.652 229.383 548.144C229.122 548.419 228.427 553.838 227.839 560.185C227.522 563.602 227.131 565.632 226.82 566.754C226.959 566.58 227.129 566.403 227.333 566.234C226.092 567.474 224.565 583.922 223.081 599.898C222.807 602.851 222.535 605.787 222.265 608.609C221.849 612.98 220.832 621.285 220.007 627.066C219.18 632.848 218.159 646.828 217.737 658.133C217.314 669.438 216.347 683.24 215.588 688.803C213.863 701.444 211.352 730.876 211.055 741.927C210.836 750.137 210.791 750.221 207.942 747.707C206.352 746.304 199.948 738.78 193.709 730.986C185.38 720.579 182.538 715.973 183.012 713.646C183.367 711.904 184.048 696.173 184.525 678.689C185.452 644.711 186.195 629.385 191.778 529.136C193.96 489.956 196.146 461.923 197.375 457.378C204.394 431.411 223.31 410.273 251.738 396.627C262.378 391.52 270.778 387.409 277.359 384.188C293.122 376.473 298.485 373.848 299.415 374.778C294.707 374.778 294.827 397.903 294.849 400.064C294.857 400.957 294.414 402.754 293.852 405.031C293.054 408.264 292.018 412.467 291.695 416.43C291.145 423.185 290.281 442.589 289.772 459.551C289.003 485.233 289.188 490.606 290.883 491.68C292.542 492.729 292.555 492.972 290.958 492.991C289.849 493.002 289.344 493.915 289.797 495.093C290.339 496.506 289.032 497.691 285.732 498.781C283.057 499.662 280.003 501.452 278.947 502.756C277.328 504.753 277.346 504.933 279.055 503.903C280.442 503.068 280.753 503.215 280.038 504.373C279.462 505.303 278.387 505.69 277.648 505.232C276.908 504.776 275.532 504.877 274.592 505.458C273.417 506.184 273.755 506.858 275.675 507.609C277.596 508.361 278.312 508.709 275.428 508.806C271.996 508.92 265.053 516.561 263.783 521.62C263.033 524.605 263.697 534.455 265.084 540.934C265.728 543.945 270.154 550.255 274.749 554.713C277.406 557.291 278.535 557.667 279.422 556.267C280.288 554.904 280.598 555.056 280.615 556.855C280.644 560.028 284.601 561.181 295.549 561.202C304.969 561.223 312.426 559.162 312.426 556.541C312.426 555.68 313.178 555.439 314.095 556.005C315.128 556.645 315.371 556.402 314.731 555.369C314.108 554.359 314.666 553.7 316.145 553.7C319.239 553.7 323.986 548.318 323.986 544.81C323.986 543.341 324.611 542.141 325.374 542.141C326.139 542.141 327.452 539.585 328.295 536.459C329.959 530.278 328.228 518.75 325.5 517.841C324.658 517.559 324.353 516.707 324.822 515.945C326.321 513.522 318.284 504.676 310.597 500.285L303.168 496.042L303.593 482.617C303.827 475.234 304.323 468.699 304.696 468.098C305.067 467.496 304.655 467.003 303.78 467.003C302.124 467.003 302.27 456.773 303.944 455.444C304.446 455.046 305.304 447.243 305.853 438.104C306.402 428.965 307.116 417.469 307.44 412.557C307.622 409.794 307.646 407.16 307.668 404.684C307.697 401.469 307.723 398.519 308.091 395.896C308.091 394.882 308.472 393.679 308.903 392.314C309.333 390.955 309.814 389.436 310.021 387.782L310.023 387.761C310.434 384.477 310.61 383.064 310.803 381.654C310.949 380.59 311.103 379.528 311.374 377.667V370.957C313.706 369.763 314.008 369.509 314.31 369.255C314.611 369.001 314.913 368.747 317.245 367.553C318.612 364.533 339.994 351.683 343.854 351.495C343.91 351.492 343.962 351.49 344.01 351.502C344.573 351.652 344.576 353.916 344.619 382.885C344.665 414.311 344.757 477.162 345.66 602.829ZM718.041 407.478C722.412 410.238 724.531 416.074 723.64 422.899C722.735 429.82 719.338 433.665 713.09 434.838C701.779 436.96 695.06 431.95 693.794 420.451C692.997 413.213 693.264 411.935 696.129 409.243C702.006 403.721 710.946 403.002 718.041 407.478ZM774.748 406.624C775.333 407.571 776.551 407.889 777.454 407.331C778.357 406.772 778.947 406.851 778.765 407.507C778.581 408.162 779.256 411.104 780.262 414.044C781.6 417.956 781.694 420.825 780.611 424.745C779.799 427.69 779.483 430.665 779.909 431.356C780.335 432.047 780.149 432.49 779.493 432.342C778.838 432.194 776.352 432.883 773.967 433.875C768.594 436.107 759.473 435.045 755.848 431.765C749.646 426.153 748.86 413.767 754.387 408.764C759.712 403.945 772.277 402.625 774.748 406.624ZM698.292 459.632C700.088 461.924 700.038 461.975 697.746 460.179C696.356 459.088 695.218 457.949 695.218 457.65C695.218 456.461 696.404 457.225 698.292 459.632ZM300.287 476.16C299.826 477.311 299.484 476.969 299.415 475.286C299.352 473.763 299.693 472.91 300.173 473.39C300.653 473.87 300.705 475.116 300.287 476.16ZM506.3 498.327C522.592 509.397 517.487 531.613 497.691 535.797C491.092 537.192 481.214 532.51 477.261 526.113C465.863 507.673 488.367 486.14 506.3 498.327ZM312.305 508.245C312.305 508.557 311.296 509.2 310.062 509.674C308.776 510.167 308.197 509.924 308.703 509.106C309.551 507.732 312.305 507.075 312.305 508.245ZM831.951 511.105C831.56 512.002 829.168 517.611 826.632 523.572C824.097 529.532 821.84 534.617 821.616 534.87C821.392 535.124 816.203 533.247 810.084 530.701L798.959 526.068L806.067 518.961C809.976 515.052 815.576 511.028 818.513 510.018C824.577 507.933 833.036 508.618 831.951 511.105ZM305.632 512.288C305.293 512.839 306.817 513.164 309.021 513.01C311.741 512.823 313.027 513.429 313.027 514.902C313.027 516.094 313.678 517.618 314.472 518.289C315.313 518.998 314.86 519.169 313.389 518.696C310.338 517.715 310.249 518.357 312.851 522.538C315.443 526.704 316.988 535.131 315.159 535.131C313.195 535.131 313.392 539.074 315.419 540.326C316.414 540.941 316.696 540.725 316.117 539.79C315.584 538.927 315.809 537.813 316.617 537.313C317.424 536.815 318.085 537.466 318.085 538.761C318.085 540.057 319.06 542.093 320.252 543.285C321.444 544.477 322.42 546.129 322.42 546.954C322.42 547.78 321.165 546.921 319.632 545.045C317.322 542.217 316.519 541.96 314.936 543.542C313.354 545.125 313.369 545.373 315.014 544.987C316.107 544.733 317.329 545.427 317.731 546.53C318.15 547.685 317.816 548.14 316.943 547.601C316.11 547.085 314.37 547.722 313.075 549.017C310.207 551.884 311.36 553.609 314.438 551.055C315.649 550.049 316.64 549.852 316.64 550.617C316.64 551.381 314.978 552.764 312.947 553.69C310.915 554.615 309.652 556.021 310.142 556.811C310.635 557.61 309.547 558.236 307.694 558.219L304.358 558.187L307.97 555.361C309.957 553.806 310.77 552.52 309.776 552.502C307.73 552.466 307.956 549.459 310.138 547.679C310.932 547.032 310.038 546.939 308.151 547.474C305.494 548.225 304.985 548.003 305.9 546.484C306.832 544.935 306.642 544.875 304.996 546.198C302.51 548.196 292.005 549.156 289.507 547.611C288.536 547.012 287.741 547.21 287.741 548.051C287.741 548.891 286.316 549.581 284.575 549.581C281.681 549.581 281.621 549.425 283.89 547.766C286.209 546.07 286.18 545.789 283.444 543.445C280.327 540.777 279.331 542.038 282.25 544.957C283.598 546.305 283.591 546.691 282.214 546.691C281.241 546.691 279.827 545.065 279.071 543.078C277.534 539.035 274.366 538.034 275.641 541.995C276.327 544.128 276.21 544.184 274.9 542.356C273.742 540.742 273.891 539.78 275.486 538.585C276.816 537.588 277.691 534.302 277.797 529.915C277.961 523.142 279.99 512.13 280.346 516.09C280.463 517.399 281.868 516.944 284.806 514.645C288.197 511.993 290.895 511.289 297.673 511.289C302.391 511.289 305.972 511.739 305.632 512.288ZM871.957 512.704C892.423 517.04 910.981 529.107 917.83 542.532C923.92 554.47 919.245 577.422 910.078 580.584C907.4 581.508 905.23 581.478 903.672 580.495C898.969 577.528 898.252 574.652 900.067 566.001C901.022 561.45 901.584 557.508 901.317 557.24C901.05 556.973 898.621 563.374 895.92 571.466C890.15 588.746 884.765 595.819 877.377 595.819C871.159 595.819 867.904 593.861 865.84 588.88C864.375 585.343 864.789 582.065 868.608 566.938C871.749 554.494 872.64 548.696 871.577 547.633C869.423 545.479 867.943 547.539 864.988 556.806C861.344 568.235 858.502 572.475 853.343 574.177C847.659 576.054 842.63 574.305 838.457 569.001C834.524 564 834.582 561.702 839.162 541.219C844.051 519.36 846.267 514.662 852.728 512.454C859.278 510.216 860.28 510.229 871.957 512.704ZM277.626 515.539C277.626 515.89 276.976 516.578 276.181 517.069C275.386 517.561 274.736 517.273 274.736 516.432C274.736 515.591 275.386 514.902 276.181 514.902C276.976 514.902 277.626 515.188 277.626 515.539ZM305.94 549.805C306.619 550.901 306.277 551.111 304.943 550.419C303.826 549.841 304.041 550.292 305.418 551.423C308.771 554.171 307.253 555.337 300.143 555.475C296.898 555.537 295.057 555.917 296.049 556.317C298.876 557.459 298.166 559.695 294.977 559.695C293.395 559.695 291.288 558.395 290.296 556.806C289.303 555.216 287.671 553.916 286.67 553.916C284.029 553.916 284.439 551.492 287.264 550.409C288.592 549.9 290.122 550.202 290.665 551.082C291.774 552.874 301.705 551.534 303.014 549.417C304.064 547.717 304.703 547.801 305.94 549.805ZM706.898 558.493C713.613 561.054 718.095 561.532 735.797 561.577C756.242 561.629 757.04 561.513 768.739 556.811C769.218 556.619 769.677 556.433 770.117 556.253C770.477 556.107 770.824 555.965 771.16 555.828C775.176 554.186 777.612 553.19 780.084 553.093C783.892 552.942 787.785 554.925 797.677 559.963C798.874 560.573 800.159 561.227 801.543 561.928C828.63 575.651 852.854 598.53 866.379 623.159C875.607 639.967 875.958 643.059 875.958 707.676V765.678L868.412 775.647C857.88 789.561 833.908 812.965 820.248 822.668C813.933 827.153 801.94 834.306 793.596 838.563L778.424 846.303L731.796 846.721L685.171 847.14L672.828 841.356C641.221 826.544 621.545 807.657 599.514 770.976L594.192 762.117V705.896C594.192 645.029 623.575 588.881 638.986 576.791C641.883 574.517 643.886 572.92 645.298 571.794C648.031 569.614 648.565 569.189 649.172 568.977C649.263 568.946 649.356 568.919 649.458 568.891C649.521 568.875 649.588 568.858 649.66 568.839C650.426 568.644 651.801 568.293 655.964 566.31L657.092 565.773C682.687 553.583 687.244 551.412 691.089 552.306C691.922 552.5 692.722 552.837 693.695 553.248L693.894 553.332C696.675 554.504 702.527 556.826 706.898 558.493ZM922.524 606.008C935.109 638.351 936.876 679.491 926.891 707.651C923.341 717.665 909.491 741.759 907.286 741.759C906.678 741.759 906.181 719.72 906.181 692.783C906.181 638.408 905.425 632.875 896.096 618.938C893.702 615.362 891.76 611.786 891.78 610.991C891.819 609.481 914.465 595.93 917.067 595.86C917.889 595.838 920.345 600.404 922.524 606.008ZM232.383 633.027C232.021 634.417 231.723 633.28 231.723 630.498C231.723 627.717 232.021 626.579 232.383 627.969C232.747 629.359 232.747 631.637 232.383 633.027ZM475.54 367.822C475.01 367.035 468.95 363.345 462.072 359.621C455.194 355.898 448.855 352.852 447.983 352.852C446.842 352.852 446.4 421.938 446.4 600.661V848.471H504.198H561.996L562.08 731.068C562.125 666.498 562.643 611.065 563.231 607.886C563.819 604.707 563.697 600.072 562.958 597.583C561.968 594.243 562.295 590.847 564.211 584.579C568.208 571.502 563.893 546.03 574.039 538.057C588.787 526.469 599.964 547.246 613.013 546.89C624.674 546.571 624.943 546.483 659.051 531.83C664.349 529.554 669.388 527.691 670.249 527.691C671.109 527.691 671.812 527.034 671.812 526.232C671.812 525.428 645.641 498.06 613.653 465.411L581.507 427.367L533.819 395.531C496.525 377.432 494.676 376.738 496.116 381.39C500.976 397.093 504.468 430.598 504.059 457.591L503.751 477.798L511.561 482.383C521.575 488.261 527.694 495.402 530.703 504.716C533.653 513.853 533.698 517.92 530.944 527.193C525.976 543.918 512.577 554.001 495.142 554.131C461.247 554.382 444.024 514.035 467.854 490.205C471.685 486.374 477.683 482.226 481.496 480.769L488.303 478.17V464.002C488.303 457.026 488.227 449.231 488.173 443.742L488.173 443.717L488.153 441.716C488.083 434.413 488.125 427.871 488.145 424.8C488.15 424.027 488.153 423.474 488.153 423.183C488.153 423.183 485.915 413.523 485.821 411.734C485.728 409.945 484.971 405.882 484.14 402.703C483.308 399.524 481.251 390.697 479.566 383.087C477.882 375.478 476.07 368.609 475.54 367.822ZM779.483 324.09C783.843 326.551 787.17 328.539 787.409 330.111L788.323 330.744C790.06 329.984 801.482 338.33 809.291 346.862C817.267 355.578 826.808 374.252 829.182 385.795C835.846 418.191 823.845 458.195 798.542 487.932C776.605 513.714 754.296 524.41 735.071 518.363C726.43 515.645 709.732 503.927 704.971 497.242C703.229 494.795 701.213 493.392 700.24 493.95C699.307 494.483 698.998 494.417 699.551 493.801C700.106 493.186 698.093 489.344 695.081 485.262C692.066 481.18 688.148 474.589 686.372 470.616C680.773 458.086 676.079 444.916 676.915 444.079C677.358 443.637 679.37 445.2 681.384 447.553C683.493 450.015 690.571 457.338 690.116 455.883C690.777 455.991 692.86 457.911 694.744 460.15C700.476 466.963 715.47 473.053 730.658 474.738C741.989 475.997 745.566 475.835 754.5 473.659C765.82 470.902 779.688 463.977 779.1 461.376C778.902 460.498 779.552 459.942 780.545 460.14C781.539 460.339 782.189 459.689 781.99 458.695C781.792 457.702 782.377 457.052 783.293 457.25C784.208 457.449 786.322 455.643 787.99 453.237C789.657 450.831 791.663 448.88 792.446 448.902C793.23 448.924 794.112 447.641 794.407 446.051C794.7 444.462 796.198 440.377 797.734 436.974C799.27 433.571 800.12 430.129 799.623 429.326C799.126 428.521 799.5 426.922 800.455 425.771C801.605 424.386 801.861 421.36 801.215 416.804C799.786 406.718 795.882 393.261 794.613 394.045C794.009 394.419 793.604 393.594 793.713 392.211C793.821 390.83 793.122 389.853 792.157 390.042C791.192 390.231 790.742 389.502 791.157 388.421C792.73 384.319 767.887 365.8 764.016 368.193C763.102 368.758 762.798 368.545 763.317 367.704C764.885 365.17 751.254 362.24 738.28 362.323C717.567 362.456 697.561 372.473 685.352 388.825C681.157 394.443 680.546 395.247 681.114 400.064C680.719 396.715 681.508 403.414 681.114 400.064C679.577 399.668 678.631 404.286 676.657 407.91L673.987 412.817L673.506 407.783C672.824 400.662 675.978 380.533 678.716 374.526C679.984 371.745 681.063 368.819 681.114 368.024C681.163 367.229 682.83 365.04 684.817 363.159C686.176 361.871 688.357 359.242 689.77 357.538C690.423 356.751 690.912 356.161 691.081 355.993C691.803 355.271 711.748 335.777 711.31 336.486C712.607 336.054 713.139 335.698 714.086 335.065C714.723 334.64 715.547 334.09 716.915 333.307C720.224 331.417 725.013 328.92 725.709 329.227C725.664 329.25 725.678 329.262 725.76 329.262L725.733 329.24L725.709 329.227C726.052 329.051 729.858 328.225 733.459 327.444C736.105 326.871 738.645 326.32 739.618 326.068C745.408 324.576 763.329 322.528 763.329 323.828C764.213 323.436 771.276 322.759 779.019 323.828L779.483 324.09Z" fill="#09244B"/>
<path d="M787.409 330.111C787.17 328.539 783.843 326.551 779.483 324.09L779.019 323.828C771.276 322.759 764.213 323.436 763.329 323.828C763.329 322.528 745.408 324.576 739.618 326.068C738.645 326.32 736.105 326.871 733.459 327.444C729.858 328.225 726.052 329.051 725.709 329.227L725.733 329.24L725.76 329.262C725.678 329.262 725.664 329.25 725.709 329.227C725.013 328.92 720.224 331.417 716.915 333.307C715.547 334.09 714.723 334.64 714.086 335.065C713.139 335.698 712.607 336.054 711.31 336.486C711.748 335.777 691.803 355.271 691.081 355.993C690.912 356.161 690.423 356.751 689.77 357.538C688.357 359.242 686.176 361.871 684.817 363.159C682.83 365.04 681.163 367.229 681.114 368.024C681.063 368.819 679.984 371.745 678.716 374.526C675.978 380.533 672.824 400.662 673.506 407.783L673.987 412.817L676.657 407.91C678.631 404.286 679.577 399.668 681.114 400.064C680.719 396.715 681.508 403.414 681.114 400.064C680.546 395.247 681.157 394.443 685.352 388.825C697.561 372.473 717.567 362.456 738.28 362.323C751.254 362.24 764.885 365.17 763.317 367.704C762.798 368.545 763.102 368.758 764.016 368.193C767.887 365.8 792.73 384.319 791.157 388.421C790.742 389.502 791.192 390.231 792.157 390.042C793.122 389.853 793.821 390.83 793.713 392.211C793.604 393.594 794.009 394.419 794.613 394.045C795.882 393.261 799.786 406.718 801.215 416.804C801.861 421.36 801.605 424.386 800.455 425.771C799.5 426.922 799.126 428.521 799.623 429.326C800.12 430.129 799.27 433.571 797.734 436.974C796.198 440.377 794.7 444.462 794.407 446.051C794.112 447.641 793.23 448.924 792.446 448.902C791.663 448.88 789.657 450.831 787.99 453.237C786.322 455.643 784.208 457.449 783.293 457.25C782.377 457.052 781.792 457.702 781.99 458.695C782.189 459.689 781.539 460.339 780.545 460.14C779.552 459.942 778.902 460.498 779.1 461.376C779.688 463.977 765.82 470.902 754.5 473.659C745.566 475.835 741.989 475.997 730.658 474.738C715.47 473.053 700.476 466.963 694.744 460.15C692.86 457.911 690.777 455.991 690.116 455.883C690.571 457.338 683.493 450.015 681.384 447.553C679.37 445.2 677.358 443.637 676.915 444.079C676.079 444.916 680.773 458.086 686.372 470.616C688.148 474.589 692.066 481.18 695.081 485.262C698.093 489.344 700.106 493.186 699.551 493.801C698.998 494.417 699.307 494.483 700.24 493.95C701.213 493.392 703.229 494.795 704.971 497.242C709.732 503.927 726.43 515.645 735.071 518.363C754.296 524.41 776.605 513.714 798.542 487.932C823.845 458.195 835.846 418.191 829.182 385.795C826.808 374.252 817.267 355.578 809.291 346.862C801.482 338.33 790.06 329.984 788.323 330.744L787.409 330.111Z" fill="white"/>
<path d="M462.072 359.621C468.95 363.345 475.01 367.035 475.54 367.822C476.07 368.609 477.882 375.478 479.566 383.087C481.251 390.697 483.308 399.524 484.14 402.703C484.971 405.882 485.728 409.945 485.821 411.734C485.915 413.523 488.153 423.183 488.153 423.183C488.153 423.474 488.15 424.027 488.145 424.8C488.125 427.871 488.083 434.413 488.153 441.716L488.173 443.717L488.173 443.742C488.227 449.231 488.303 457.026 488.303 464.002V478.17L481.496 480.769C477.683 482.226 471.685 486.374 467.854 490.205C444.024 514.035 461.247 554.382 495.142 554.131C512.577 554.001 525.976 543.918 530.944 527.193C533.698 517.92 533.653 513.853 530.703 504.716C527.694 495.402 521.575 488.261 511.561 482.383L503.751 477.798L504.059 457.591C504.468 430.598 500.976 397.093 496.116 381.39C494.676 376.738 496.525 377.432 533.819 395.531L581.507 427.367L613.653 465.411C645.641 498.06 671.812 525.428 671.812 526.232C671.812 527.034 671.109 527.691 670.249 527.691C669.388 527.691 664.349 529.554 659.051 531.83C624.943 546.483 624.674 546.571 613.013 546.89C599.964 547.246 588.787 526.469 574.039 538.057C563.893 546.03 568.208 571.502 564.211 584.579C562.295 590.847 561.968 594.243 562.958 597.583C563.697 600.072 563.819 604.707 563.231 607.886C562.643 611.065 562.125 666.498 562.08 731.068L561.996 848.471H504.198H446.4V600.661C446.4 421.938 446.842 352.852 447.983 352.852C448.855 352.852 455.194 355.898 462.072 359.621Z" fill="white"/>
<path d="M535.748 515.66C535.748 537.195 517.97 554.674 496.012 554.674C474.054 554.674 456.276 537.195 456.276 515.66C456.276 494.126 474.054 476.646 496.012 476.646C517.97 476.646 535.748 494.126 535.748 515.66Z" fill="#09244B" stroke="white" stroke-width="1.44495"/>
<path d="M516.977 514.937C516.977 525.698 508.091 534.444 497.102 534.444C486.113 534.444 477.228 525.698 477.228 514.937C477.228 504.176 486.113 495.43 497.102 495.43C508.091 495.43 516.977 504.176 516.977 514.937Z" fill="white" stroke="white" stroke-width="1.44495"/>
<path d="M508.221 514.295C508.221 520.709 502.914 525.934 496.337 525.934C489.759 525.934 484.452 520.709 484.452 514.295C484.452 507.88 489.759 502.656 496.337 502.656C502.914 502.656 508.221 507.88 508.221 514.295Z" fill="#09244B" stroke="white" stroke-width="1.44495"/>
<path d="M334.899 534.444C334.899 555.978 317.121 573.457 295.163 573.457C273.205 573.457 255.427 555.978 255.427 534.444C255.427 512.909 273.205 495.43 295.163 495.43C317.121 495.43 334.899 512.909 334.899 534.444Z" fill="#09244B" stroke="white" stroke-width="1.44495"/>
<path d="M316.128 533.722C316.128 544.483 307.242 553.229 296.253 553.229C285.265 553.229 276.379 544.483 276.379 533.722C276.379 522.961 285.265 514.215 296.253 514.215C307.242 514.215 316.128 522.961 316.128 533.722Z" fill="white" stroke="white" stroke-width="1.44495"/>
<path d="M307.374 533.079C307.374 539.494 302.066 544.718 295.489 544.718C288.912 544.718 283.604 539.494 283.604 533.079C283.604 526.664 288.912 521.44 295.489 521.44C302.066 521.44 307.374 526.664 307.374 533.079Z" fill="#09244B" stroke="white" stroke-width="1.44495"/>
<path d="M89.0406 1174.26C40.675 1174.26 10.3563 1140.09 10.3563 1088.59C10.3563 1037.58 41.8781 1002.93 90.725 1002.93C128.022 1002.93 155.213 1024.59 161.469 1059.48H139.331C132.834 1036.14 115.028 1022.18 89.7625 1022.18C54.3906 1022.18 31.7719 1049.61 31.7719 1088.59C31.7719 1127.33 53.4281 1155.01 88.8 1155.01C114.787 1155.01 132.834 1141.29 139.091 1117.71H161.228C154.972 1152.6 127.059 1174.26 89.0406 1174.26ZM183.619 1172.81V1004.37H203.351V1172.81H183.619ZM240.488 1029.4C233.269 1029.4 227.735 1024.11 227.735 1016.65C227.735 1009.19 233.269 1003.89 240.488 1003.89C247.706 1003.89 253.241 1009.19 253.241 1016.65C253.241 1024.11 247.706 1029.4 240.488 1029.4ZM230.381 1172.81V1050.09H250.113V1172.81H230.381ZM337.3 1048.65C364.972 1048.65 386.869 1063.81 386.869 1104.48V1172.81H367.137V1105.68C367.137 1080.17 355.347 1066.7 333.931 1066.7C310.831 1066.7 296.875 1083.78 296.875 1111.45V1172.81H277.144V1050.09H294.228L296.875 1066.7C304.094 1057.31 316.606 1048.65 337.3 1048.65ZM422.131 1029.4C414.913 1029.4 409.378 1024.11 409.378 1016.65C409.378 1009.19 414.913 1003.89 422.131 1003.89C429.35 1003.89 434.885 1009.19 434.885 1016.65C434.885 1024.11 429.35 1029.4 422.131 1029.4ZM412.025 1172.81V1050.09H431.756V1172.81H412.025ZM513.89 1174.26C478.037 1174.26 454.456 1149.95 454.456 1111.69C454.456 1074.16 478.759 1048.65 514.372 1048.65C544.45 1048.65 563.459 1065.49 568.512 1092.44H547.818C544.209 1076.08 532.178 1066.22 514.131 1066.22C490.55 1066.22 474.668 1084.98 474.668 1111.69C474.668 1138.4 490.55 1156.69 514.131 1156.69C531.697 1156.69 543.728 1146.58 547.578 1130.94H568.512C563.7 1157.41 543.728 1174.26 513.89 1174.26ZM698.666 1154.77H704.922V1172.81H694.094C677.732 1172.81 672.197 1165.83 671.957 1153.8C664.257 1164.87 651.985 1174.26 630.81 1174.26C603.86 1174.26 585.572 1160.78 585.572 1138.4C585.572 1113.86 602.657 1100.14 634.9 1100.14H670.994V1091.72C670.994 1075.84 659.685 1066.22 640.435 1066.22C623.11 1066.22 611.56 1074.4 609.153 1086.91H589.422C592.31 1062.85 611.8 1048.65 641.397 1048.65C672.678 1048.65 690.725 1064.29 690.725 1092.93V1146.58C690.725 1153.08 693.132 1154.77 698.666 1154.77ZM670.994 1122.76V1116.75H632.975C615.41 1116.75 605.544 1123.24 605.544 1137.2C605.544 1149.23 615.891 1157.41 632.253 1157.41C656.797 1157.41 670.994 1143.22 670.994 1122.76ZM720.091 1172.81V1004.37H739.822V1172.81H720.091ZM840.657 1172.81H819.001L883.248 1004.37H908.032L972.038 1172.81H949.66L931.854 1127.33H858.463L840.657 1172.81ZM895.038 1027.23L864.72 1108.33H925.598L895.038 1027.23ZM991.097 1172.81V1004.37H1012.03V1172.81H991.097ZM24.5531 1446.81H2.89688L67.1438 1278.37H91.9281L155.934 1446.81H133.556L115.75 1401.33H42.3594L24.5531 1446.81ZM78.9344 1301.23L48.6156 1382.33H109.494L78.9344 1301.23ZM164.467 1406.39H184.68C185.402 1420.83 198.155 1431.41 218.608 1431.41C235.933 1431.41 248.205 1423.95 248.205 1412.64C248.205 1397.24 234.73 1396.04 216.442 1393.88C189.011 1390.51 167.114 1384.97 167.114 1359.47C167.114 1337.09 187.567 1322.41 215.239 1322.65C243.152 1322.89 263.364 1335.88 265.289 1361.39H245.077C243.633 1348.88 232.083 1339.49 215.239 1339.49C198.155 1339.49 186.605 1346.71 186.605 1358.02C186.605 1371.5 199.598 1373.18 217.405 1375.35C245.317 1378.72 267.695 1384.01 267.695 1411.2C267.695 1434.06 245.798 1448.26 218.608 1448.26C186.845 1448.26 164.948 1433.34 164.467 1406.39ZM282.195 1406.39H302.407C303.129 1420.83 315.882 1431.41 336.335 1431.41C353.66 1431.41 365.932 1423.95 365.932 1412.64C365.932 1397.24 352.457 1396.04 334.17 1393.88C306.739 1390.51 284.842 1384.97 284.842 1359.47C284.842 1337.09 305.295 1322.41 332.967 1322.65C360.879 1322.89 381.092 1335.88 383.017 1361.39H362.804C361.36 1348.88 349.81 1339.49 332.967 1339.49C315.882 1339.49 304.332 1346.71 304.332 1358.02C304.332 1371.5 317.326 1373.18 335.132 1375.35C363.045 1378.72 385.423 1384.01 385.423 1411.2C385.423 1434.06 363.526 1448.26 336.335 1448.26C304.573 1448.26 282.676 1433.34 282.195 1406.39ZM417.432 1303.4C410.213 1303.4 404.679 1298.11 404.679 1290.65C404.679 1283.19 410.213 1277.89 417.432 1277.89C424.65 1277.89 430.185 1283.19 430.185 1290.65C430.185 1298.11 424.65 1303.4 417.432 1303.4ZM407.325 1446.81V1324.09H427.057V1446.81H407.325ZM463.231 1414.81V1342.14H441.094V1324.09H463.231V1289.68H482.963V1324.09H514.725V1342.14H482.963V1414.57C482.963 1424.92 486.572 1428.77 497.159 1428.77H516.65V1446.81H495.234C471.653 1446.81 463.231 1436.47 463.231 1414.81ZM640.39 1428.77H646.646V1446.81H635.818C619.455 1446.81 613.921 1439.83 613.68 1427.8C605.98 1438.87 593.708 1448.26 572.533 1448.26C545.583 1448.26 527.296 1434.78 527.296 1412.4C527.296 1387.86 544.38 1374.14 576.624 1374.14H612.718V1365.72C612.718 1349.84 601.408 1340.22 582.158 1340.22C564.833 1340.22 553.283 1348.4 550.877 1360.91H531.146C534.033 1336.85 553.524 1322.65 583.121 1322.65C614.402 1322.65 632.449 1338.29 632.449 1366.93V1420.58C632.449 1427.08 634.855 1428.77 640.39 1428.77ZM612.718 1396.76V1390.75H574.699C557.133 1390.75 547.268 1397.24 547.268 1411.2C547.268 1423.23 557.615 1431.41 573.977 1431.41C598.521 1431.41 612.718 1417.22 612.718 1396.76ZM721.971 1322.65C749.643 1322.65 771.54 1337.81 771.54 1378.48V1446.81H751.808V1379.68C751.808 1354.17 740.018 1340.7 718.602 1340.7C695.502 1340.7 681.546 1357.78 681.546 1385.45V1446.81H661.815V1324.09H678.899L681.546 1340.7C688.765 1331.31 701.277 1322.65 721.971 1322.65ZM850.389 1448.26C814.536 1448.26 790.955 1423.95 790.955 1385.69C790.955 1348.16 815.258 1322.65 850.871 1322.65C880.949 1322.65 899.958 1339.49 905.011 1366.44H884.317C880.708 1350.08 868.677 1340.22 850.63 1340.22C827.049 1340.22 811.167 1358.98 811.167 1385.69C811.167 1412.4 827.049 1430.69 850.63 1430.69C868.196 1430.69 880.227 1420.58 884.077 1404.94H905.011C900.199 1431.41 880.227 1448.26 850.389 1448.26ZM983.19 1448.26C946.374 1448.26 922.312 1422.99 922.312 1385.45C922.312 1348.16 945.893 1322.65 980.543 1322.65C1015.19 1322.65 1037.81 1344.55 1038.77 1380.88C1038.77 1383.53 1038.53 1386.42 1038.29 1389.3H943.006V1390.99C943.727 1414.33 958.406 1430.69 981.746 1430.69C999.071 1430.69 1012.55 1421.55 1016.64 1405.67H1036.61C1031.8 1430.21 1011.58 1448.26 983.19 1448.26ZM944.209 1372.94H1017.6C1015.67 1351.77 1001.24 1339.97 980.784 1339.97C962.737 1339.97 946.134 1352.97 944.209 1372.94Z" fill="#09244B"/>
</svg>
